<?xml version="1.0" encoding="utf-8"?>
<!-- Generator: Adobe Illustrator 27.5.0, SVG Export Plug-In . SVG Version: 6.00 Build 0)  -->
<svg version="1.1" xmlns="http://www.w3.org/2000/svg" xmlns:xlink="http://www.w3.org/1999/xlink" x="0px" y="0px"
	 viewBox="0 0 1077 1080" style="enable-background:new 0 0 1077 1080;" xml:space="preserve">
<style type="text/css">
	.st0{fill:#7FB4CB;}
	.st1{fill:#5D5FA6;}
	.st2{fill:#FFFFFF;}
</style>
<g id="Layer_2">
	<rect x="-1.5" y="0" class="st0" width="1080" height="1080"/>
</g>
<g id="Layer_1" xmlns:svgjs="http://svgjs.dev/svgjs">
	<g>
		<path class="st1" d="M129.1,101h807.8c19.4,0,35.1,15.7,35.1,35.1v807.8c0,19.4-15.7,35.1-35.1,35.1H129.1
			c-19.4,0-35.1-15.7-35.1-35.1V136.1C94,116.7,109.7,101,129.1,101z"/>
		<path class="st2" d="M241.6,696L241.6,696V389.2c0-15.9,2-26.4,6-31.5c4-5,12.4-7.5,25.2-7.5l0,0H381c35.7,0,61.5,6.5,77.4,19.5
			c16,13,24,33.9,24,62.7l0,0v220.4c0,28.8-8,49.7-24,62.7c-15.9,13-41.7,19.5-77.4,19.5l0,0H272.8c-12.8,0-21.2-2.5-25.2-7.5
			C243.6,722.4,241.6,711.9,241.6,696z M283.2,386.6v311.9H381c22.5,0,38.1-3,46.8-9.1c8.7-6.1,13-16.6,13-31.5l0,0V427.2
			c0-15.3-4.3-25.9-13-31.8c-8.7-5.9-24.3-8.8-46.8-8.8l0,0H283.2z M708.5,737.6L708.5,737.6h-34.9c-29.5,0-50.5-7.1-63.2-21.3
			c-12.6-14.2-18.9-37.6-18.9-70.2l0,0V424.6c0-26.7,9.8-47.1,29.3-61.1c19.6-14.1,47.9-21.1,85.1-21.1l0,0c37.1,0,65.2,7,84.5,21.1
			c19.2,14,28.8,34.4,28.8,61.1l0,0v48.3c0,17.3-3.3,31.1-9.9,41.4c-6.5,10.2-17.5,17.6-32.7,22.1l0,0c17.3,3.8,29.6,10.9,36.9,21.3
			c7.3,10.4,10.9,24.8,10.9,43.1l0,0v54.6c0,26.4-10,46.7-29.9,60.9C774.6,730.5,745.9,737.6,708.5,737.6z M726.7,555.1L726.7,555.1
			h-65c-6.9,0-10.4-6.1-10.4-18.2l0,0c0-12.1,3.5-18.2,10.4-18.2l0,0h59.8c37.4,0,56.1-15.3,56.1-45.8l0,0v-53.5
			c0-13.2-6.1-23.3-18.4-30.2c-12.3-6.9-30.3-10.4-53.9-10.4l0,0c-48.1,0-72.2,13.5-72.2,40.6l0,0v226.7c0,20.1,3,34.3,9.1,42.6
			c6.1,8.3,16.5,12.5,31.4,12.5l0,0h33.8c24.6,0,43.3-3.5,56.2-10.4c12.8-6.9,19.2-17,19.2-30.2l0,0v-59.8
			C782.8,570.3,764.1,555.1,726.7,555.1z"/>
	</g>
</g>
</svg>
